<?xml version="1.0" encoding="UTF-8"?>
<svg id="Notre_Dame" data-name="Notre Dame" xmlns="http://www.w3.org/2000/svg" viewBox="0 0 224.72 60">
  <defs>
    <style>
      .cls-1 {
        fill: #0c223f;
      }
    </style>
  </defs>
  <g>
    <path class="cls-1" d="M67.73,38.34c0,.72,0,3.68.07,4.23-.19.27-.53.36-.81.34-.38-.51-1.08-1.32-2.81-3.29l-5.63-6.43c-1.57-1.75-2.34-2.67-2.74-3.03-.07,0-.07.27-.07,1.54v4.68c0,1.81.03,4.02.43,4.75.22.36.62.5,1.23.6l.53.07c.21.17.19.63-.05.7-.89-.04-1.83-.07-2.75-.07-1,0-1.65.02-2.5.07-.19-.12-.24-.53-.05-.7l.53-.11c.46-.08.89-.17,1.06-.55.31-.75.31-2.85.31-4.75v-5.7c0-1.87.03-2.26-.79-2.96-.27-.21-.94-.41-1.27-.49l-.36-.07c-.17-.14-.15-.62.1-.7.91.1,2.23.07,2.84.07.5,0,1.08-.03,1.65-.07.41,1.04,3.04,4.07,3.87,4.98l2.41,2.6c1.01,1.11,3.24,3.66,3.49,3.81.07-.07.07-.19.07-.58v-4.69c0-1.8-.02-4.02-.46-4.74-.21-.36-.6-.5-1.2-.61l-.55-.07c-.21-.16-.19-.62.05-.7.93.05,1.83.07,2.76.07,1.03,0,1.66-.03,2.53-.07.2.12.24.53.05.7l-.55.12c-.46.07-.86.17-1.04.55-.33.75-.33,2.84-.33,4.74v5.75Z"/>
    <path class="cls-1" d="M79.63,27.13c3.83,0,5.47,4.21,5.47,7.84,0,4.83-2.21,6.88-4.96,6.88-4.11,0-5.54-4.52-5.54-7.84,0-5.13,2.63-6.88,5.03-6.88ZM79.94,26.17c-5.05,0-8.61,3.63-8.61,8.54,0,4.29,3.13,8.1,8.57,8.1,4.85,0,8.46-3.53,8.46-8.27,0-4.38-2.86-8.37-8.42-8.37Z"/>
    <path class="cls-1" d="M95.8,28.57c0-1.01-.02-1.05-.65-1.05h-.71c-2.21,0-2.86.26-3.75,2.21-.17.14-.67.07-.77-.17.4-1.3.77-2.79.94-3.64.04-.07.15-.09.27-.09.1,0,.19.02.24.09.12.6.46.63,2.09.63h8.54c1.18,0,1.54-.07,1.83-.63.1-.04.19-.09.29-.09.14,0,.27.05.32.12-.25.99-.44,3.06-.37,3.83-.12.2-.53.25-.74.08-.31-1.88-.77-2.33-3.34-2.33h-.73c-.63,0-.65.04-.65,1.05v10.4c0,2.55.22,2.62,1.35,2.74l.86.09c.17.17.15.6-.05.7-1.4-.04-2.48-.07-3.54-.07s-2.19.02-3.73.07c-.19-.1-.22-.58-.05-.7l1.01-.11c1.13-.1,1.35-.17,1.35-2.72v-10.4Z"/>
    <path class="cls-1" d="M111.54,28.62c0-1.1.03-1.18,1.28-1.18,2.09,0,3.32,1.66,3.32,3.57,0,2.29-1.08,3.44-3.44,3.44-1.16,0-1.16-.05-1.16-.82v-5.01ZM108.76,38.97c0,2.55-.21,2.62-1.35,2.76l-.53.07c-.21.17-.14.6.05.7,1.11-.04,2.19-.07,3.25-.07s2.14.02,3.19.07c.2-.1.23-.53.05-.7l-.53-.07c-1.13-.14-1.35-.21-1.35-2.76v-3.08c0-.51.03-.53.75-.53.79,0,1.06.1,1.49.82.58.94,1.26,2.27,1.9,3.28,1.47,2.24,2.72,3.17,5.03,3.17.84,0,1.3-.08,1.59-.15.07-.12.07-.39-.05-.48-.29-.03-.98-.17-1.66-.75-1.13-.94-2.34-2.98-4.25-6.23-.1-.15-.14-.33,0-.41,1.18-.48,2.89-1.59,2.89-3.8,0-1.73-.89-2.86-2.12-3.51-1.06-.58-2.69-.82-4.58-.82s-4.02.07-5.53.22c-.19.12-.19.5-.02.67l.62.07c1.13.12,1.15.41,1.15,2.72v8.81Z"/>
    <path class="cls-1" d="M126.38,30.02c0-2.55-.21-2.63-1.35-2.79l-.38-.05c-.16-.16-.14-.6.05-.7.45.02.96.05,1.49.05.53.03,1.08.03,1.61.03h4.6c1.54,0,2.94-.03,3.25-.07.09.41.24,2.31.38,3.34-.1.2-.57.24-.77.1-.39-1.4-.75-2-1.52-2.19-.55-.17-1.28-.21-1.92-.21h-1.61c-1.04,0-1.04.04-1.04,1.41v4.07c0,.63.03.65.58.65h1.15c2.1,0,2.51-.02,2.68-1.06l.17-.81c.2-.17.65-.17.77.02-.02.65-.07,1.51-.07,2.41s.04,1.76.07,2.53c-.12.17-.57.17-.77.02l-.17-.96c-.17-1.01-.58-1.06-2.68-1.06h-1.15c-.56,0-.58.05-.58.65v3.06c0,1.22.05,2.08.41,2.5.29.34.7.53,2.72.53,3.05.05,3.58-.65,4.43-2.6.22-.17.63-.09.77.14-.14,1.01-.68,2.84-1.01,3.49-.53-.02-1.3-.04-2.31-.04-1.01-.02-2.21-.02-3.63-.02h-2.74c-1.05,0-2.52.02-3.61.07-.19-.1-.21-.53-.04-.7l.88-.09c1.13-.12,1.35-.19,1.35-2.74v-8.95Z"/>
    <path class="cls-1" d="M150.71,29.56c0-1.13.02-1.63.19-1.78.17-.15.94-.35,1.94-.35,4.02,0,6.79,2.31,6.79,7.07,0,4.07-1.92,7.1-6.21,7.1-2.55,0-2.72-1.25-2.72-3.58v-8.47ZM147.91,38.97c0,2.55-.21,2.62-1.34,2.76l-.53.07c-.16.17-.14.6.05.7,1.05-.04,2.14-.07,3.05-.07.45,0,.96.02,1.54.07.58.02,1.23.07,1.95.07,2.19,0,4.26-.28,5.96-1.15,2.98-1.52,4.31-4.25,4.31-6.93,0-3.59-2.05-6.13-4.94-7.19-1.75-.63-3.39-.82-5.67-.82s-4.29.07-6.02.22c-.19.12-.19.54-.02.67l.5.05c1.13.14,1.15.43,1.15,2.74v8.81Z"/>
    <path class="cls-1" d="M169.22,35.45c-.57,0-.64,0-.38-.69l1.01-2.82c.44-1.13.63-1.73.72-1.9h.05c.12.17.27.63.68,1.9l1.01,2.89c.19.58.1.62-.58.62h-2.51ZM172.04,36.54c.68,0,.75,0,.99.65l1.13,3.27c.31,1.03.24,1.18-.62,1.27l-.54.07c-.14.15-.12.58.08.7.84-.02,1.9-.07,2.93-.07,1.25,0,2.15.02,3.13.07.17-.12.17-.53-.03-.7l-.36-.07c-1.23-.21-1.35-.38-1.9-2l-3.47-10.08c-.38-1.08-.69-2.22-1.08-3.3-.1-.12-.22-.19-.41-.19-.05,0-.84.98-1.68,1.15.07.41-.15.99-.46,1.76l-3.3,8.56c-.5,1.3-.89,2.31-1.18,2.93-.36.8-.62,1.01-1.32,1.11l-.72.11c-.16.22-.14.58.03.7.84-.04,1.59-.07,2.38-.07.99.02,1.79.02,2.55.07.2-.1.22-.53.05-.7l-.7-.11c-.89-.13-.99-.2-.5-1.62l.98-2.88c.21-.65.19-.65.82-.65h3.2Z"/>
    <path class="cls-1" d="M201.2,41.8c.24.1.21.6-.05.7-1.04-.04-1.98-.07-2.94-.07-1.13,0-2.17.02-3.22.07-.19-.1-.29-.55-.05-.7l.65-.11c.96-.15,1.03-.34,1.03-1.98v-9.84h-.05c-.65,1.32-.98,2.04-1.44,3.01l-2.06,4.24c-.82,1.68-2.03,4.36-2.46,5.48-.09.1-.45.1-.62,0-.41-1.3-1.44-3.66-1.99-4.86l-2.15-4.62c-.46-1.01-1.11-2.53-1.39-3.25h-.05c-.05,1.18-.09,3.06-.14,4.06-.05,1.47-.1,3.61-.1,5.58,0,1.59.03,1.97,1.06,2.14l.79.14c.17.15.17.6-.02.7-.89-.04-1.64-.07-2.53-.07-.77,0-1.63.02-2.57.07-.23-.12-.23-.58-.08-.7l.41-.04c1.15-.15,1.34-.51,1.49-1.98.2-1.51.24-3.07.36-5.58.1-1.63.24-3.63.24-5.1,0-1.13-.35-1.63-1.29-1.78l-.82-.15c-.14-.16-.12-.62.1-.7.72.05,1.37.07,2.26.07.84,0,1.68,0,2.58-.07.09,1.45.72,2.69,1.32,4l2.65,5.56c.19.4.82,1.61,1.13,2.16.38-.7.72-1.38,1.25-2.5l2.26-4.62c.77-1.58,1.54-3,1.94-4.59.65.05,1.45.07,1.98.07,1.01,0,1.85-.03,2.53-.07.26.1.31.56.07.7l-.79.12c-1.05.14-1.3.55-1.3,1.83,0,3.56.04,7.12.22,10.68.08,1.61.34,1.78,1.11,1.88l.7.11Z"/>
    <path class="cls-1" d="M206.35,30.02c0-2.55-.21-2.63-1.35-2.79l-.39-.05c-.17-.16-.14-.6.05-.7.45.02.96.05,1.49.05.53.03,1.08.03,1.61.03h4.59c1.54,0,2.94-.03,3.25-.07.09.41.24,2.31.38,3.34-.1.2-.58.24-.78.1-.38-1.4-.74-2-1.51-2.19-.56-.17-1.27-.21-1.92-.21h-1.61c-1.04,0-1.04.04-1.04,1.41v4.07c0,.63.02.65.58.65h1.15c2.1,0,2.5-.02,2.68-1.06l.16-.81c.19-.17.65-.17.77.02-.02.65-.07,1.51-.07,2.41s.05,1.76.07,2.53c-.12.17-.57.17-.77.02l-.16-.96c-.17-1.01-.58-1.06-2.68-1.06h-1.15c-.55,0-.58.05-.58.65v3.06c0,1.22.05,2.08.41,2.5.29.34.7.53,2.72.53,3.05.05,3.58-.65,4.43-2.6.21-.17.62-.09.77.14-.14,1.01-.68,2.84-1.01,3.49-.53-.02-1.3-.04-2.31-.04-1.01-.02-2.21-.02-3.63-.02h-2.74c-1.06,0-2.53.02-3.61.07-.19-.1-.21-.53-.05-.7l.89-.09c1.13-.12,1.35-.19,1.35-2.74v-8.95Z"/>
    <path class="cls-1" d="M53.62,13.17c0-1.5-.11-1.54-1.02-1.74l-.31-.06c-.15-.11-.13-.48.05-.54.74.04,1.42.06,2.12.06s1.37-.02,2.22-.06c.17.06.2.43.04.54l-.41.06c-.94.16-1.03.24-1.03,1.74v3.07c0,2.17.72,3.66,2.83,3.66,1.96,0,2.81-1.48,2.81-3.63v-2.03c0-2.18-.13-2.68-1.07-2.81l-.46-.06c-.15-.13-.13-.44.05-.54.69.04,1.19.06,1.83.06s1.11-.02,1.81-.06c.18.11.18.43.02.54l-.65.06c-.57.07-.74.65-.74,2.81v2.15c0,2.79-1.29,4.25-4.06,4.25-1.39,0-2.44-.28-3.09-.91-.65-.65-.94-1.65-.94-3.08v-3.48Z"/>
    <path class="cls-1" d="M77.54,14.24c0-2.18-.13-2.72-.93-2.81l-.7-.06c-.15-.13-.13-.44.04-.54.81.04,1.3.06,1.94.06s1.11-.02,1.8-.06c.17.11.17.43.02.54l-.65.06c-.57.07-.74.65-.74,2.81v3.66c0,.44,0,2.2.06,2.53-.06.13-.27.24-.46.19-.24-.3-.68-.76-2.02-2.22l-3.31-3.53c-.83-.87-1.39-1.44-1.68-1.68-.09,0-.09.24-.09.92v2.88c0,2.18.13,2.75.94,2.81l.69.07c.18.13.13.43-.04.54-.81-.05-1.31-.07-1.94-.07s-1.05.02-1.81.07c-.17-.09-.17-.44-.02-.54l.65-.07c.56-.06.74-.65.74-2.81v-3.9c0-.72-.02-1.03-.46-1.35-.17-.13-.59-.27-.81-.31l-.33-.06c-.15-.13-.15-.46.04-.54.83.06,1.42.06,1.88.06.3,0,.61-.02.87-.06.43.83,1.24,1.76,2.13,2.68l2.05,2.11c.48.48,1.74,1.86,1.98,2.03.13-.05.13-.35.13-.87v-2.53Z"/>
    <path class="cls-1" d="M86.91,13.17c0-1.5-.09-1.59-1.02-1.74l-.42-.06c-.15-.11-.13-.48.05-.54.85.04,1.53.06,2.21.06s1.38-.02,2.22-.06c.17.06.2.43.04.54l-.41.06c-.94.16-1.03.24-1.03,1.74v4.88c0,1.51.09,1.59,1.03,1.74l.41.07c.15.11.13.48-.04.54-.83-.05-1.55-.07-2.22-.07s-1.37.02-2.21.07c-.18-.07-.2-.44-.05-.54l.42-.07c.93-.16,1.02-.24,1.02-1.74v-4.88Z"/>
    <path class="cls-1" d="M96.94,13.22c-.65-1.44-.74-1.55-1.26-1.68l-.72-.17c-.13-.13-.16-.44.02-.54.57.04,1.29.06,1.96.06.79,0,1.42-.02,2.12-.06.18.08.2.43,0,.54l-.46.06c-.56.09-.56.37-.09,1.44l1.07,2.41c.54,1.24.91,2.05,1.24,2.77.44-.91.81-1.83,1.22-2.74.46-1,1.07-2.51,1.29-3.15.16-.46.13-.61-.52-.74l-.35-.06c-.2-.13-.12-.42.04-.54.63.04,1.2.06,1.79.06.7,0,1.2-.02,1.55-.06.21.08.26.43.11.54l-.61.13c-.65.13-.79.33-1.48,1.8l-1.65,3.56c-.65,1.39-1.29,2.98-1.55,3.7-.07.06-.15.08-.27.08-.08,0-.17-.02-.25-.08-.2-.57-.44-1.27-.72-1.87l-2.46-5.46Z"/>
    <path class="cls-1" d="M112.05,13.17c0-1.5-.09-1.57-.92-1.74l-.3-.06c-.16-.09-.12-.46.04-.54.33.02.66.04.98.04.35.02.69.02,1.04.02h3.1c.96,0,1.82-.02,2.03-.06.02.26.13,1.28.24,2.22-.09.17-.44.19-.57.04-.13-.56-.26-.85-.39-1.05-.34-.52-1.33-.52-1.85-.52h-.96c-.76,0-.79.02-.79.69v2.42c0,.4,0,.44.41.44h1.03c1.16,0,1.26-.18,1.44-.83l.11-.41c.11-.16.43-.13.54.04-.04.63-.04,1.03-.04,1.53,0,.54,0,.93.04,1.56-.11.18-.44.2-.54.05l-.11-.42c-.18-.65-.28-.82-1.44-.82h-1.03c-.41,0-.41.06-.41.5v1.57c0,.65.04,1.33.24,1.56.2.22.59.31,1.83.31,1.4,0,2.2-.07,2.83-1.81.15-.15.5-.11.57.09-.11.92-.41,2-.65,2.42-.67-.03-1.3-.05-1.91-.05-.61-.02-1.2-.02-1.79-.02h-1.92c-.69,0-1.37.02-2.42.07-.17-.07-.19-.44-.04-.54l.59-.07c.93-.11,1.02-.24,1.02-1.74v-4.88Z"/>
    <path class="cls-1" d="M127.7,12.06c0-.56.16-.61.96-.61,1.53,0,2.29.96,2.29,2.05,0,1.5-.74,2.08-2.15,2.08-1.07,0-1.1,0-1.1-.55v-2.97ZM126.05,18.05c0,1.51-.08,1.55-1.03,1.74l-.32.07c-.2.09-.18.48.04.54.77-.05,1.44-.07,2.13-.07s1.4.02,2.31.07c.17-.07.19-.44.04-.54l-.5-.07c-.94-.14-1.03-.24-1.03-1.74v-1.55c0-.31.05-.34.62-.34.35,0,.7.08.87.34.45.7,1.04,1.65,1.59,2.35.96,1.22,1.74,1.63,3.05,1.63.42,0,.72-.04.92-.11.09-.07.09-.26,0-.35-.35-.02-.76-.13-1.15-.46-.72-.59-1.68-1.65-2.77-3.49-.07-.11-.09-.24,0-.32.85-.31,1.94-.94,1.94-2.33,0-2.29-2.2-2.61-4.23-2.61-1.19,0-2.41.04-3.61.13-.22.07-.18.52,0,.55l.61.09c.5.07.52.43.52,1.85v4.61Z"/>
    <path class="cls-1" d="M141.89,15.89c-1.04-.54-1.94-1.39-1.94-2.61,0-1.59,1.22-2.7,3.43-2.7.76,0,1.28.2,2.02.33.18.37.33,1.2.31,2.14-.07.17-.46.19-.57.04-.18-.76-.74-1.87-2.02-1.87s-1.78.73-1.78,1.47c0,.78.6,1.27,1.47,1.72l1.35.69c.79.4,1.76,1.32,1.76,2.77,0,1.7-1.39,2.76-3.55,2.76-1.33,0-2.2-.46-2.51-.67-.19-.31-.45-1.09-.45-2.25.09-.22.41-.24.57-.04.17.79,1.12,2.34,2.59,2.34,1.11,0,1.83-.57,1.83-1.57,0-.7-.28-1.41-1.52-2.05l-.98-.5Z"/>
    <path class="cls-1" d="M153.28,13.17c0-1.5-.09-1.59-1.03-1.74l-.41-.06c-.16-.11-.13-.48.04-.54.85.04,1.53.06,2.22.06s1.37-.02,2.23-.06c.17.06.19.43.04.54l-.41.06c-.94.16-1.03.24-1.03,1.74v4.88c0,1.51.09,1.59,1.03,1.74l.41.07c.16.11.13.48-.04.54-.83-.05-1.55-.07-2.23-.07s-1.37.02-2.22.07c-.17-.07-.2-.44-.04-.54l.41-.07c.94-.16,1.03-.24,1.03-1.74v-4.88Z"/>
    <path class="cls-1" d="M165.78,12.08c0-.56-.03-.56-.46-.56h-.68c-1.32,0-1.89.13-2.42,1.63-.21.13-.46.07-.54-.1.24-.94.48-2.02.59-2.58.09-.08.31-.08.39,0,.02.44.33.42,1.2.42h6.05c.8,0,.96-.02,1.13-.42.15-.08.32-.04.39.07-.18.56-.26,1.72-.22,2.55-.08.17-.46.19-.54.03-.15-1.42-.72-1.59-2.03-1.59h-.74c-.42,0-.48,0-.48.56v5.97c0,1.51.09,1.64,1.03,1.74l.59.07c.15.11.13.48-.04.54-.9-.05-1.72-.07-2.4-.07s-1.48.02-2.39.07c-.18-.07-.2-.44-.04-.54l.59-.07c.94-.11,1.03-.24,1.03-1.74v-5.97Z"/>
    <path class="cls-1" d="M180.13,17.44c0-.67-.06-.85-.61-1.86l-1.59-2.94c-.46-.87-.68-1.06-1.24-1.18l-.57-.1c-.16-.13-.11-.48.06-.54.72.04,1.22.06,2.01.06.66,0,1.16-.02,1.86-.06.17.08.24.43.02.54l-.3.06c-.48.11-.55.24-.2.91l.81,1.55c.32.66.65,1.25.98,1.81.35-.59.67-1.11,1.05-1.81l.87-1.59c.33-.6.37-.8-.15-.87l-.46-.06c-.2-.11-.18-.46.04-.54.66.04,1.15.06,1.65.06s.94-.02,1.54-.06c.18.06.22.43.05.54l-.52.1c-.68.13-.79.27-1.46,1.36l-1.35,2.17c-.78,1.24-.82,1.46-.82,2.1v1.17c0,1.29.08,1.42,1.02,1.52l.55.07c.15.11.12.48-.05.54-.95-.05-1.68-.07-2.35-.07s-1.37.02-2.35.07c-.18-.07-.2-.44-.05-.54l.55-.07c.94-.11,1.02-.24,1.02-1.52v-.83Z"/>
    <path class="cls-1" d="M198.78,11.15c2.4,0,3.51,2.35,3.51,4.68,0,2.98-1.6,4.12-3.25,4.12-2.53,0-3.55-2.42-3.55-4.67,0-3.07,1.72-4.14,3.29-4.14ZM198.94,10.51c-3.16,0-5.38,2.22-5.38,5.12,0,2.74,2,4.94,5.38,4.94,3.07,0,5.29-2.14,5.29-5.08,0-2.66-1.79-4.99-5.29-4.99Z"/>
    <path class="cls-1" d="M209.74,13.17c0-1.5-.11-1.54-.92-1.74l-.26-.06c-.15-.11-.13-.48.04-.55.3.02.61.04.94.04.33.02.68.02,1.02.02h3.03c.96,0,1.79-.02,2.09-.06.02.26.04,1.28.12,2.23-.09.22-.44.24-.58.04-.12-.57-.26-.85-.38-1.05-.37-.54-1.33-.52-1.85-.52h-.85c-.68,0-.74,0-.74.76v2.52c0,.4,0,.44.41.44h1.17c1.16,0,1.27-.18,1.44-.82l.11-.41c.11-.15.43-.13.54.04-.04.63-.04,1.02-.04,1.53,0,.55,0,.94.04,1.57-.11.17-.43.2-.54.04l-.11-.41c-.17-.65-.28-.83-1.44-.83h-1.17c-.41,0-.41.06-.41.5v1.62c0,1.5.08,1.65,1.02,1.74l.68.07c.15.1.13.47-.05.54-1.09-.04-1.81-.07-2.48-.07s-1.37.03-2.22.07c-.18-.07-.2-.44-.05-.54l.42-.07c.94-.15,1.03-.23,1.03-1.74v-4.88Z"/>
  </g>
  <g>
    <path class="cls-1" d="M13.72,16.83c-.36-.07-2.39-.47-2.39-.47,0,0,1.36,1.55,1.6,1.83-.24.28-1.6,1.83-1.6,1.83,0,0,2.02-.4,2.39-.47.12.35.79,2.3.79,2.3,0,0,.66-1.95.78-2.3.37.07,2.39.47,2.39.47,0,0-1.36-1.55-1.6-1.83.25-.28,1.6-1.83,1.6-1.83,0,0-2.02.4-2.39.47-.12-.35-.78-2.3-.78-2.3,0,0-.67,1.95-.79,2.3ZM14.51,16.28c.16.47.41,1.2.41,1.2,0,0,.75-.15,1.24-.25-.33.38-.83.95-.83.95,0,0,.5.57.83.95-.49-.1-1.24-.24-1.24-.24,0,0-.25.72-.41,1.19-.16-.47-.41-1.19-.41-1.19,0,0-.75.15-1.24.24.33-.38.83-.95.83-.95,0,0-.5-.57-.83-.95.49.1,1.24.25,1.24.25,0,0,.25-.72.41-1.2Z"/>
    <g>
      <path class="cls-1" d="M15.3,46.27h0s0,0,0,0Z"/>
      <g>
        <g>
          <path class="cls-1" d="M19.58,33.56c.14-.31.22-.51.31-.66.05-.09.12-.11.19-.12l.08-.02s.02-.07,0-.09c-.09,0-.19,0-.3,0-.1,0-.2,0-.32,0-.02.01-.03.06,0,.09l.09.02c.09.02.1.05.05.17-.16.42-.34.84-.5,1.22-.03-.07-.11-.25-.16-.39l-.22-.55c-.12-.31-.15-.38-.15-.41,0-.02.03-.04.09-.05l.08-.02s.02-.07,0-.09c-.16,0-.26,0-.4,0-.12,0-.25,0-.37,0-.03,0-.03.06,0,.08h.08c.12.04.15.08.23.29l.53,1.29c.05.13.1.28.14.4.01,0,.03.02.06.02s.05,0,.05-.02c.05-.15.19-.51.32-.79l.16-.38Z"/>
          <path class="cls-1" d="M20.94,34.26c0,.32.02.33.16.35h.06s.02.09,0,.1c-.13,0-.27,0-.4,0s-.27,0-.4,0c-.02-.01-.03-.07,0-.09h.07c.14-.03.17-.04.17-.36v-1.14c0-.33-.02-.34-.17-.36h-.07s-.02-.08,0-.09c.13,0,.26,0,.4,0,.13,0,.26,0,.4,0,.02,0,.02.07,0,.09h-.06c-.14.03-.16.04-.16.36v1.14Z"/>
          <path class="cls-1" d="M22.17,32.94c0-.13,0-.13-.08-.13h-.17c-.27,0-.35.03-.46.28-.02.02-.08,0-.1-.02.05-.17.1-.36.12-.47,0,0,.02,0,.03,0,0,0,.02,0,.03,0,.01.08.06.08.26.08h1.21c.15,0,.19,0,.23-.08,0,0,.02,0,.04,0,.02,0,.03,0,.04.02-.03.13-.06.39-.04.49-.02.03-.07.03-.09.01-.04-.24-.1-.3-.41-.3h-.17c-.08,0-.08,0-.08.13v1.32c0,.32.02.33.17.35h.11s.02.09,0,.1c-.17,0-.31,0-.44,0s-.27,0-.46,0c-.03-.01-.03-.07,0-.09h.12c.14-.03.17-.04.17-.36v-1.32Z"/>
          <path class="cls-1" d="M24.19,34c.09,0,.11,0,.14.08l.13.37c.04.13.03.15-.08.16h-.07s-.01.09,0,.1c.1,0,.24,0,.37,0,.16,0,.27,0,.39,0,.02-.01.02-.07,0-.09h-.05c-.16-.04-.17-.06-.24-.27l-.44-1.28c-.05-.14-.09-.28-.14-.42,0-.02-.03-.03-.05-.03,0,0-.11.13-.22.15,0,.05-.02.12-.06.22l-.42,1.09c-.07.16-.11.29-.15.37-.05.1-.08.13-.17.14h-.09s-.02.09,0,.1c.11,0,.2,0,.3,0,.12,0,.23,0,.33,0,.02-.01.03-.07,0-.09h-.09c-.12-.03-.13-.04-.06-.22l.11-.32c.03-.08.04-.08.12-.08h.41ZM23.83,33.86c-.07,0-.1,0-.05-.13l.13-.36c.05-.15.08-.22.09-.24h0s.03.08.09.24l.12.37c.04.11.02.12-.07.12h-.31Z"/>
          <path class="cls-1" d="M19.16,36.48c0-.15,0-.21.02-.23.02-.01.11-.04.22-.04.46,0,.78.29.78.9,0,.52-.22.91-.71.91-.29,0-.32-.16-.32-.46v-1.08ZM18.84,37.68c0,.33-.03.33-.15.35h-.06s-.02.09,0,.1c.12,0,.25,0,.35,0,.05,0,.11,0,.18,0,.07,0,.14.01.22.01.25,0,.49-.04.69-.15.35-.19.5-.54.5-.88,0-.46-.24-.78-.57-.92-.2-.08-.39-.1-.66-.1s-.49,0-.69.03c-.02.01-.02.07,0,.08h.06c.13.02.13.06.13.36v1.12Z"/>
          <path class="cls-1" d="M20.98,36.54c0-.32-.03-.33-.17-.35h-.05s-.02-.08,0-.09c.12,0,.25,0,.38,0s.27,0,.4,0c.02.01.03.06,0,.08h-.07c-.14.03-.16.04-.16.36v.7c0,.42.12.78.54.78.39,0,.55-.3.55-.77v-.39c0-.23,0-.51-.06-.6-.03-.05-.07-.07-.15-.08h-.06s-.02-.09,0-.09c.1,0,.21,0,.33,0,.13,0,.21,0,.32,0,.02.01.03.06,0,.09h-.07c-.05.02-.11.04-.13.08-.04.09-.04.36-.04.6v.37c0,.28-.04.54-.2.71-.16.17-.38.23-.58.23-.28,0-.48-.06-.61-.2-.14-.13-.19-.34-.19-.66v-.78Z"/>
          <path class="cls-1" d="M23.65,36.54c0-.32.02-.32.17-.35h.06s.02-.09,0-.1c-.13,0-.26,0-.4,0s-.27,0-.42,0c-.03.01-.03.07,0,.09h.08c.14.03.17.04.17.36v1.14c0,.32-.03.33-.17.35h-.09s-.02.09,0,.1c.12,0,.27,0,.42,0h.31c.17,0,.32,0,.44,0,.12,0,.22,0,.28,0,.04-.08.1-.31.12-.44-.02-.02-.06-.03-.09-.01-.14.31-.18.33-.51.33-.24,0-.29-.03-.32-.07-.04-.05-.05-.16-.05-.32v-1.08Z"/>
          <path class="cls-1" d="M24.24,37.13v.03s.08,0,.08,0v-.02c.04-.08.07-.18.2-.18.04,0,.09.01.21.07l.03.02c.24.11.27.13.35.12.13,0,.28-.1.31-.34v-.03s-.09,0-.09,0h0c-.03.15-.09.21-.19.21-.06,0-.08,0-.28-.11-.2-.09-.26-.11-.33-.11,0,0-.25-.02-.3.33Z"/>
        </g>
        <path class="cls-1" d="M37.35,30.22v-1.61s-2.1.93-5.71.42c-3.42-.49-4.85.45-4.85.45,0,0-1.43-.94-4.85-.45-3.6.51-5.71-.42-5.71-.42v1.61h-.96v12.2h9.95s.48.61,1.56.61,1.56-.61,1.56-.61h9.96v-12.2h-.96ZM26.38,41.19s-1.21-.83-4.63-.39c-3.43.44-4.66-.35-4.66-.35v-10.72s1.45.57,4.87.13c3.43-.44,4.42.38,4.42.38v10.94ZM36.52,40.47s-1.23.79-4.66.35c-3.43-.44-4.63.39-4.63.39v-10.94s1-.83,4.42-.39c3.42.44,4.87-.13,4.87-.13v10.72Z"/>
        <g>
          <path class="cls-1" d="M29.61,33.22s-.07.03-.08,0c-.05-.18-.16-.43-.51-.43s-.67.26-.67.86.35.92.69.92.48-.25.55-.43c.02-.03.07-.02.08.01-.02.19-.09.38-.13.44-.03,0-.06.01-.09.02-.06.02-.24.07-.41.07-.26,0-.49-.06-.68-.19-.21-.15-.37-.42-.37-.8,0-.34.14-.6.33-.77.19-.16.46-.25.73-.25.15,0,.33.03.46.07.03,0,.05,0,.07.01,0,.07.01.24.04.46Z"/>
          <path class="cls-1" d="M30.13,33.12c0-.33-.02-.34-.17-.36h-.05s-.02-.08.01-.09c.05,0,.12,0,.18,0,.06,0,.13,0,.2,0h.52c.19,0,.37,0,.4,0,.01.05.03.29.05.42-.01.03-.07.03-.09.01-.05-.18-.09-.25-.19-.28-.07-.02-.16-.03-.24-.03h-.16c-.13,0-.13,0-.13.18v.55c0,.08,0,.08.07.08h.1c.26,0,.31,0,.33-.14l.02-.1s.08-.02.09,0c0,.08,0,.19,0,.31s0,.22,0,.32c-.01.02-.07.02-.09,0l-.02-.12c-.02-.13-.07-.14-.33-.14h-.1c-.07,0-.07,0-.07.08v.35c0,.16,0,.27.05.32.04.04.04.07.29.07.38,0,.4-.09.5-.33.02-.02.08-.01.1.02-.02.13-.08.36-.13.44-.07,0-.12,0-.24,0-.12,0-.23,0-.4,0h-.34c-.13,0-.31,0-.45,0-.02-.01-.03-.07,0-.09h.11c.15-.03.17-.04.17-.36v-1.13Z"/>
          <path class="cls-1" d="M32.19,33.06c0-.14,0-.21.03-.23.02-.02.01-.04.13-.04.47,0,.8.29.8.9,0,.52-.23.91-.73.91-.3,0-.22-.16-.22-.46v-1.08ZM31.86,34.26c0,.33-.02.34-.16.35h-.06s-.02.09,0,.1c.12,0,.25,0,.36,0,.05,0,.11,0,.18,0,.07,0,.09,0,.18,0,.26,0,.45-.04.65-.15.35-.2.51-.55.51-.88,0-.45-.24-.78-.58-.92-.2-.08-.35-.1-.62-.1s-.45,0-.65.02c-.02.02-.02.07,0,.09h.06c.13.03.13.06.13.35v1.12Z"/>
          <path class="cls-1" d="M34.75,32.75c.44,0,.63.54.63,1,0,.62-.25.88-.57.88-.47,0-.64-.58-.64-1,0-.65.3-.87.58-.87ZM34.79,32.63c-.58,0-.99.46-.99,1.09,0,.55.36,1.03.99,1.03.56,0,.98-.45.98-1.05,0-.56-.33-1.06-.97-1.06Z"/>
          <path class="cls-1" d="M28.74,38.04c-.05-.06-.09-.27-.09-.47.02-.03.07-.03.09,0,.06.16.22.48.51.48.23,0,.35-.14.35-.33,0-.18-.08-.31-.3-.45l-.13-.07c-.22-.13-.42-.31-.42-.59,0-.3.22-.56.66-.56.15,0,.27.03.41.06.03.07.06.27.06.41-.02.03-.07.03-.1,0-.04-.16-.15-.36-.4-.36s-.34.16-.34.32c0,.13.09.27.29.37l.18.1c.19.1.41.29.41.6,0,.35-.26.6-.69.6-.27,0-.43-.09-.49-.13Z"/>
          <path class="cls-1" d="M30.49,36.56c0-.28,0-.32-.13-.34h-.1s-.02-.09,0-.1c.21-.02.39-.03.66-.03s.49.04.62.12c.15.09.25.26.25.46,0,.47-.43.59-.66.59-.03,0-.05,0-.07,0-.02-.02-.02-.06-.01-.08.27-.05.37-.25.37-.5s-.15-.47-.43-.47c-.15,0-.15,0-.15.13v1.34c0,.32.02.33.16.35h.11s.02.09,0,.1c-.18,0-.31,0-.44,0s-.26,0-.39,0c-.02,0-.02-.06,0-.09h.05c.14-.03.17-.04.17-.36v-1.12Z"/>
          <path class="cls-1" d="M32.24,37.68c0,.32-.03.33-.17.35h-.11s-.02.09,0,.1c.13,0,.31,0,.44,0h.34c.18,0,.33,0,.45,0,.12,0,.18,0,.25,0,.05-.08.11-.31.13-.44-.02-.03-.07-.04-.1-.01-.1.25-.13.33-.51.33-.25,0-.3-.02-.33-.07-.04-.05-.05-.16-.05-.32v-.34c0-.08,0-.08.07-.08h.14c.26,0,.31,0,.33.13l.02.12s.08.02.1,0c0-.1,0-.21,0-.33,0-.11,0-.22,0-.3-.01-.03-.07-.03-.1,0l-.02.1c-.02.14-.07.14-.33.14h-.14c-.06,0-.07,0-.07-.08v-.57c0-.18,0-.18.13-.18h.2c.08,0,.17,0,.23.02.1.02.14.1.19.28.03.02.08.01.09-.01-.02-.13-.04-.37-.05-.42-.04,0-.21,0-.4,0h-.57c-.06,0-.13,0-.2,0-.07,0-.13,0-.18,0-.03.01-.03.07,0,.09h.05c.14.02.17.04.17.36v1.14Z"/>
          <path class="cls-1" d="M33.95,38.04c-.06-.06-.09-.27-.09-.47.02-.03.06-.03.09,0,.06.16.21.48.51.48.22,0,.35-.14.35-.33,0-.18-.08-.31-.3-.45l-.13-.07c-.22-.13-.42-.31-.42-.59,0-.3.22-.56.65-.56.15,0,.27.03.41.06.03.07.06.27.06.41-.01.03-.07.03-.09,0-.04-.16-.15-.36-.4-.36s-.34.16-.34.32c0,.13.09.27.29.37l.19.1c.19.1.4.29.4.6,0,.35-.26.6-.69.6-.27,0-.43-.09-.49-.13Z"/>
        </g>
      </g>
      <path class="cls-1" d="M26.8,10.86H7.25v17.77c0,16.94,10.77,26.01,19.55,30.96,8.78-4.95,19.54-14.02,19.54-30.96V10.86s-19.54,0-19.54,0ZM26.8,56.48c-.97-.55-1.9-1.13-2.9-1.82.78-.35,1.46-.87,2.91-.87s2.12.52,2.9.87c-1,.69-1.94,1.27-2.9,1.82ZM33.58,51.6c-.5.44-.73.58-1.2.68-.23.05-.72.07-.72.07-1.99,0-2.43-1.19-4.86-1.19s-2.87,1.19-4.86,1.19c0,0-.49-.02-.72-.07-.47-.1-.7-.24-1.2-.68-.98-.85-1.83-1.74-2.72-2.77,1.82,0,2.28,1.1,4.64,1.1,1.99,0,2.43-1.19,4.86-1.19s2.87,1.19,4.86,1.19c2.37,0,2.81-1.1,4.64-1.1-.89,1.03-1.74,1.92-2.72,2.77ZM43.68,28.9c0,7.18-2.21,12.88-5.38,17.37,0,0,0,0,0,0,0,0-.61-.23-1.57-.23-2.03,0-2.64,1.19-5.07,1.19-1.47,0-2.09-.65-3.3-.99v-2.92s-.36.51-1.56.51-1.56-.51-1.56-.51v2.92c-1.2.34-1.83.99-3.3.99-2.42,0-3.03-1.19-5.06-1.19-.97,0-1.58.23-1.58.23,0,0,0,0,0,0-3.17-4.48-5.38-10.18-5.38-17.36v-15.38s16.88,0,16.88,0h16.88v15.38Z"/>
      <path class="cls-1" d="M28.35,25.48h6.73l2.27,1.31v-5.36l-2.27,1.31h-6.73,0s0-5.2,0-5.2l1.32-2.28h-5.76l1.32,2.28v5.2h-6.73l-2.27-1.31v5.36l2.27-1.31h6.73v2.73s.91.1,1.56.47c.65-.37,1.56-.47,1.56-.47v-2.73h0Z"/>
    </g>
  </g>
</svg>