<?xml version="1.0" encoding="UTF-8"?>
<svg xmlns="http://www.w3.org/2000/svg" viewBox="0 0 1025 1025">
  <defs>
    <style>
      .cls-1 {
        fill: #282828;
      }

      .cls-1, .cls-2 {
        stroke: #000;
        stroke-miterlimit: 10;
      }

      .cls-3 {
        fill: #51db96;
      }

      .cls-4 {
        fill: #f2a348;
      }

      .cls-2 {
        fill: none;
        stroke-width: .83px;
      }
    </style>
  </defs>
  <g id="Background">
    <rect class="cls-1" x=".5" y=".5" width="1024" height="1024"/>
  </g>
  <g id="Logo">
    <g>
      <g>
        <path class="cls-4" d="M509,912.12c-93.79,0-181.97-36.52-248.28-102.84-66.32-66.32-102.84-154.49-102.84-248.28s33.35-173.88,93.91-239.02c60.24-64.8,141.82-104.23,229.71-111.04l.35-.03v-34.37h-22.4c-14.21,0-25.78-11.56-25.78-25.78s11.56-25.78,25.78-25.78h98.66c14.21,0,25.78,11.56,25.78,25.78,0,6.89-2.68,13.36-7.55,18.23-4.86,4.87-11.33,7.55-18.23,7.55h-24.7v34.18l.35.02c40.56,2.82,79.91,12.54,116.96,28.9,35.97,15.88,68.84,37.59,97.71,64.52l.27.25,30.43-30.42-4.78-4.78c-6.98-6.98-6.98-18.34,0-25.32l2.85-2.85c3.38-3.38,7.87-5.24,12.65-5.24s9.28,1.86,12.65,5.24l37.48,37.48c3.38,3.38,5.24,7.87,5.24,12.65s-1.86,9.28-5.24,12.65l-2.85,2.85c-3.38,3.38-7.88,5.24-12.66,5.24s-9.28-1.86-12.66-5.24l-4.87-4.87-31.04,31.03.23.27c54.17,63.41,84,144.34,84,227.88,0,93.79-36.52,181.97-102.84,248.28-66.32,66.32-154.49,102.84-248.28,102.84ZM509,280.83c-74.84,0-145.2,29.14-198.11,82.06-52.92,52.92-82.06,123.27-82.06,198.11s29.14,145.2,82.06,198.11c52.92,52.92,123.28,82.06,198.11,82.06s145.2-29.14,198.11-82.06,82.06-123.28,82.06-198.11-29.14-145.2-82.06-198.11c-52.92-52.92-123.28-82.06-198.11-82.06Z"/>
        <path d="M558.1,125.36c14.01,0,25.4,11.39,25.4,25.4,0,6.79-2.64,13.17-7.44,17.96-4.79,4.8-11.17,7.44-17.96,7.44h-25.08v34.91l.7.05c40.52,2.81,79.83,12.53,116.83,28.87,35.93,15.87,68.76,37.55,97.6,64.45l.53.5.52-.52,29.9-29.89.53-.53-.53-.53-4.52-4.52c-3.31-3.31-5.13-7.71-5.13-12.39s1.82-9.08,5.13-12.39l2.85-2.85c3.31-3.31,7.71-5.13,12.39-5.13s9.08,1.82,12.39,5.13l37.48,37.48c3.31,3.31,5.13,7.71,5.13,12.39s-1.82,9.08-5.13,12.39l-2.85,2.85c-3.31,3.31-7.71,5.13-12.39,5.13s-9.08-1.82-12.39-5.13l-4.6-4.6-.53-.53-.53.53-30.52,30.52-.49.49.45.53c26.54,31.07,47.26,66.13,61.58,104.21,14.82,39.41,22.33,80.93,22.33,123.42,0,47.35-9.27,93.29-27.56,136.53-17.67,41.77-42.96,79.28-75.17,111.49-32.21,32.21-69.72,57.5-111.49,75.17-43.24,18.29-89.18,27.56-136.53,27.56s-93.29-9.27-136.53-27.56c-41.77-17.67-79.28-42.96-111.49-75.17-32.21-32.21-57.5-69.72-75.17-111.49-18.29-43.24-27.56-89.18-27.56-136.53,0-88.9,33.31-173.69,93.81-238.76,60.18-64.73,141.67-104.12,229.46-110.92l.7-.05v-35.1h-22.78c-14.01,0-25.4-11.39-25.4-25.4s11.39-25.4,25.4-25.4h98.66M509,841.55c37.88,0,74.62-7.42,109.21-22.05,33.41-14.13,63.41-34.36,89.18-60.12s45.99-55.77,60.12-89.18c14.63-34.59,22.05-71.33,22.05-109.21s-7.42-74.62-22.05-109.21c-14.13-33.41-34.36-63.41-60.12-89.18-25.76-25.76-55.77-45.99-89.18-60.12-34.59-14.63-71.33-22.05-109.21-22.05s-74.62,7.42-109.21,22.05c-33.41,14.13-63.41,34.36-89.18,60.12-25.76,25.76-45.99,55.77-60.12,89.18-14.63,34.59-22.05,71.33-22.05,109.21s7.42,74.62,22.05,109.21c14.13,33.41,34.36,63.41,60.12,89.18,25.76,25.76,55.77,45.99,89.18,60.12,34.59,14.63,71.33,22.05,109.21,22.05M558.1,124.61h-98.66c-14.45,0-26.16,11.71-26.16,26.16s11.71,26.16,26.16,26.16h22.03v33.64c-181.27,14.04-323.97,165.57-323.97,350.44,0,194.13,157.37,351.5,351.5,351.5s351.5-157.37,351.5-351.5c0-87.06-31.65-166.74-84.09-228.13l30.52-30.52,4.6,4.6c3.57,3.57,8.25,5.36,12.93,5.36s9.36-1.79,12.93-5.36l2.85-2.85c7.13-7.13,7.13-18.71,0-25.84l-37.48-37.48c-3.57-3.57-8.24-5.35-12.92-5.35s-9.36,1.78-12.92,5.35l-2.85,2.85c-7.14,7.14-7.14,18.71,0,25.85l4.52,4.52-29.9,29.89c-57.13-53.29-132.06-87.76-214.89-93.52v-33.45h24.32c7.22,0,13.77-2.93,18.49-7.66,4.74-4.73,7.66-11.27,7.66-18.49,0-14.45-11.71-26.16-26.16-26.16h0ZM509,840.8c-154.53,0-279.8-125.26-279.8-279.8s125.26-279.8,279.8-279.8,279.8,125.26,279.8,279.8-125.26,279.8-279.8,279.8h0Z"/>
      </g>
      <g id="Head">
        <path class="cls-3" d="M509,434.86c-28.11,0-50.98-22.87-50.98-50.98s22.87-50.98,50.98-50.98,50.98,22.87,50.98,50.98-22.87,50.98-50.98,50.98Z"/>
        <path d="M509,333.3c27.88,0,50.57,22.69,50.57,50.57s-22.69,50.57-50.57,50.57-50.57-22.69-50.57-50.57,22.69-50.57,50.57-50.57M509,332.48c-28.38,0-51.39,23.01-51.39,51.39s23.01,51.39,51.39,51.39,51.39-23.01,51.39-51.39-23.01-51.39-51.39-51.39h0Z"/>
      </g>
      <g id="Body">
        <path class="cls-3" d="M559.94,581.69v-58.56c3.33-.34,6.68-.77,10.05-1.3,60.06-9.44,106.47-46.59,139.54-84.26-15.6-11.93-31.2-23.86-46.81-35.79-21.25,21.93-55.91,51-104.62,63.33-51.59,13.05-80-2.52-132.16,6.42-32.17,5.52-77.99,21.15-129.4,68.83,14.38,11.01,28.76,22.03,43.13,33.04,18.04-14.93,47.47-34.86,87.87-45.03,13.76-3.46,26.59-5.24,38.01-6.02.49,18.22-1.03,55.44-22.17,95.11-29.28,54.93-76.89,78.38-92.69,85.35,12.55,15.9,25.08,31.82,37.63,47.72,17.75-12.45,77.06-55.87,108.3-114.72,21.41-.31,42.83-.61,64.24-.92,35.49.39,65.9,20.52,76.17,49.56,9.03,25.52-.75,48.78-3.64,55.08,18.85,2.29,37.7,4.58,56.55,6.86,1.8-5.03,21.43-63.23-19.39-114.7-40.59-51.18-104.85-50.19-110.61-50Z"/>
        <path class="cls-2" d="M559.94,581.69v-58.56c3.33-.34,6.68-.77,10.05-1.3,60.06-9.44,106.47-46.59,139.54-84.26-15.6-11.93-31.2-23.86-46.81-35.79-21.25,21.93-55.91,51-104.62,63.33-51.59,13.05-80-2.52-132.16,6.42-32.17,5.52-77.99,21.15-129.4,68.83,14.38,11.01,28.76,22.03,43.13,33.04,18.04-14.93,47.47-34.86,87.87-45.03,13.76-3.46,26.59-5.24,38.01-6.02.49,18.22-1.03,55.44-22.17,95.11-29.28,54.93-76.89,78.38-92.69,85.35,12.55,15.9,25.08,31.82,37.63,47.72,17.75-12.45,77.06-55.87,108.3-114.72,21.41-.31,42.83-.61,64.24-.92,35.49.39,65.9,20.52,76.17,49.56,9.03,25.52-.75,48.78-3.64,55.08,18.85,2.29,37.7,4.58,56.55,6.86,1.8-5.03,21.43-63.23-19.39-114.7-40.59-51.18-104.85-50.19-110.61-50Z"/>
      </g>
    </g>
  </g>
</svg>