<?xml version="1.0" encoding="UTF-8"?>
<svg id="Amazon" xmlns="http://www.w3.org/2000/svg" viewBox="0 0 224.72 60">
  <defs>
    <style>
      .cls-1 {
        fill: #010101;
      }

      .cls-1, .cls-2 {
        fill-rule: evenodd;
      }

      .cls-2 {
        fill: #f8991d;
      }
    </style>
  </defs>
  <g>
    <path class="cls-2" d="M132.33,49.1c-9.64,7.11-23.62,10.9-35.65,10.9-16.87,0-32.06-6.23-43.55-16.61-.9-.82-.1-1.93.99-1.3,12.4,7.22,27.74,11.56,43.58,11.56,10.68,0,22.43-2.22,33.24-6.8,1.63-.69,3,1.07,1.4,2.25Z"/>
    <path class="cls-2" d="M136.34,44.52c-1.23-1.58-8.15-.75-11.26-.38-.94.11-1.09-.71-.24-1.31,5.52-3.88,14.56-2.76,15.61-1.46,1.06,1.31-.28,10.37-5.45,14.7-.8.66-1.55.31-1.2-.57,1.16-2.91,3.77-9.41,2.53-10.99Z"/>
  </g>
  <g>
    <path class="cls-1" d="M125.31,15.46v-3.77c0-.57.43-.96.95-.95h16.88c.54,0,.97.39.97.95v3.23c0,.54-.46,1.25-1.27,2.37l-8.74,12.48c3.25-.08,6.68.41,9.63,2.07.66.37.84.93.9,1.47v4.02c0,.55-.61,1.19-1.24.86-5.19-2.72-12.09-3.02-17.83.03-.59.31-1.2-.32-1.2-.87v-3.82c0-.61.01-1.66.63-2.59l10.13-14.53h-8.82c-.54,0-.97-.39-.98-.95Z"/>
    <path class="cls-1" d="M63.73,38.98h-5.14c-.49-.03-.88-.4-.92-.87V11.76c0-.53.45-.95,1-.95h4.78c.5.02.9.4.93.88v3.44h.1c1.25-3.33,3.6-4.88,6.76-4.88s5.23,1.55,6.66,4.88c1.25-3.33,4.08-4.88,7.09-4.88,2.16,0,4.51.89,5.94,2.88,1.63,2.22,1.3,5.43,1.3,8.26v16.63c0,.53-.45.95-1,.95h-5.13c-.52-.03-.92-.44-.92-.95v-13.97c0-1.11.09-3.88-.15-4.93-.38-1.78-1.53-2.28-3.02-2.28-1.25,0-2.54.83-3.07,2.16-.53,1.33-.48,3.55-.48,5.05v13.97c0,.53-.44.95-.99.95h-5.13c-.52-.03-.92-.44-.92-.95v-13.97c0-2.94.47-7.26-3.17-7.26s-3.55,4.21-3.55,7.26v13.97c0,.53-.45.95-.99.95Z"/>
    <path class="cls-1" d="M158.64,10.25c7.62,0,11.74,6.55,11.74,14.86s-4.55,14.42-11.74,14.42-11.55-6.55-11.55-14.7,4.12-14.59,11.55-14.59ZM158.69,15.64c-3.79,0-4.03,5.16-4.03,8.37s-.05,10.09,3.98,10.09,4.17-5.55,4.17-8.93c0-2.22-.1-4.88-.77-6.99-.57-1.83-1.73-2.55-3.36-2.55Z"/>
    <path class="cls-1" d="M180.27,38.98h-5.12c-.51-.03-.92-.44-.92-.95V11.67c.03-.48.46-.86.98-.86h4.76c.45.02.82.33.91.74v4.03h.1c1.44-3.61,3.45-5.32,7-5.32,2.3,0,4.55.83,5.99,3.11,1.34,2.11,1.34,5.66,1.34,8.21v16.59c-.06.47-.48.83-.98.83h-5.15c-.48-.03-.86-.38-.91-.83v-14.31c0-2.88.34-7.1-3.21-7.1-1.25,0-2.4.83-2.97,2.11-.72,1.61-.82,3.22-.82,4.99v14.19c0,.53-.45.95-1,.95Z"/>
    <path class="cls-1" d="M111.85,26.4c0,2,.05,3.67-.96,5.45-.82,1.44-2.11,2.33-3.55,2.33-1.97,0-3.12-1.5-3.12-3.72,0-4.37,3.92-5.17,7.64-5.17v1.11ZM117.03,38.92c-.34.31-.83.33-1.21.12-1.71-1.42-2.01-2.07-2.94-3.42-2.82,2.87-4.81,3.73-8.47,3.73-4.32,0-7.69-2.67-7.69-8,0-4.17,2.26-7,5.48-8.39,2.79-1.22,6.68-1.45,9.66-1.78v-.67c0-1.22.1-2.67-.63-3.72-.63-.95-1.83-1.33-2.88-1.33-1.96,0-3.7,1-4.13,3.08-.09.46-.43.92-.89.95l-4.98-.54c-.42-.1-.89-.43-.77-1.07,1.15-6.04,6.6-7.86,11.48-7.86,2.5,0,5.76.67,7.73,2.56,2.5,2.33,2.26,5.45,2.26,8.84v8c0,2.41,1,3.46,1.94,4.76.33.47.4,1.02-.02,1.37-1.05.88-2.91,2.5-3.94,3.41h-.01Z"/>
    <path class="cls-1" d="M44.53,26.4c0,2,.05,3.67-.96,5.45-.82,1.44-2.11,2.33-3.55,2.33-1.97,0-3.12-1.5-3.12-3.72,0-4.37,3.92-5.17,7.64-5.17v1.11ZM49.71,38.92c-.34.31-.83.33-1.21.12-1.71-1.42-2.01-2.07-2.94-3.42-2.82,2.87-4.82,3.73-8.47,3.73-4.32,0-7.69-2.67-7.69-8,0-4.17,2.26-7,5.48-8.39,2.79-1.22,6.68-1.45,9.66-1.78v-.67c0-1.22.1-2.67-.62-3.72-.63-.95-1.83-1.33-2.88-1.33-1.96,0-3.7,1-4.13,3.08-.09.46-.43.92-.89.95l-4.98-.54c-.42-.1-.89-.43-.77-1.07,1.14-6.04,6.6-7.86,11.48-7.86,2.5,0,5.76.67,7.73,2.56,2.5,2.33,2.26,5.45,2.26,8.84v8c0,2.41,1,3.46,1.94,4.76.33.47.4,1.02-.02,1.37-1.05.88-2.91,2.5-3.94,3.41h-.01Z"/>
  </g>
</svg>