<?xml version="1.0" encoding="UTF-8"?>
<svg id="GE_Healthcare" data-name="GE Healthcare" xmlns="http://www.w3.org/2000/svg" viewBox="0 0 224.72 60">
  <defs>
    <style>
      .cls-1 {
        fill: #62469c;
      }
    </style>
  </defs>
  <path class="cls-1" d="M215.96,24.32c0-1.82,1.52-3.1,3.63-3.1,1.94,0,3.04.89,3.04,2.44,0,1.4-1.19,2.18-3.04,2.98l-3.63,1.55v-3.87ZM219.24,35.43c2.09,0,3.9-.8,4.83-2.44.3-.51.24-1.1-.21-1.4-.45-.3-1.04-.21-1.34.24-.8,1.16-1.82,1.73-3.28,1.73-2.15,0-3.28-1.1-3.28-3.1v-.27l4.26-1.82c3.28-1.4,4.5-2.32,4.5-4.89s-2-4.14-5.15-4.14-5.63,2.09-5.63,4.97v6.14c0,3.01,2.06,4.97,5.3,4.97h0ZM210.66,19.49c-2.98,0-5.07,2.18-5.07,5.45v9.33c0,.57.42,1.01,1.01,1.01s1.01-.45,1.01-1.01v-9.33c0-2,1.04-3.49,3.07-3.49.33,0,.83.12,1.1.12.54,0,.95-.36.95-.95,0-.45-.27-.83-.83-.98-.42-.12-.83-.15-1.25-.15h0ZM193.59,31.11c0-1.4,1.19-2.18,3.04-2.98l3.64-1.55v3.87c0,1.82-1.52,3.1-3.64,3.1-1.94,0-3.04-.89-3.04-2.44ZM196.99,19.34c-2.09,0-3.9.8-4.83,2.44-.3.51-.24,1.1.21,1.4.45.3,1.04.21,1.34-.24.8-1.16,1.82-1.73,3.28-1.73,2.14,0,3.28,1.1,3.28,3.1v.27l-4.26,1.82c-3.28,1.4-4.5,2.32-4.5,4.89s2,4.14,5.15,4.14,5.63-2.09,5.63-4.97v-6.14c0-3.01-2.06-4.97-5.3-4.97h0ZM178.6,28.43v-6.85c0-2.86,2.12-5.07,4.83-5.07,2.06,0,3.58.89,4.44,2.56.24.48.8.68,1.31.45.47-.24.66-.8.42-1.28-1.13-2.35-3.34-3.66-6.17-3.66-3.9,0-6.94,3.04-6.94,7v6.85c0,3.96,3.04,7,6.94,7,2.83,0,5.04-1.31,6.17-3.66.24-.48.06-1.04-.42-1.28-.51-.24-1.07-.03-1.31.45-.86,1.67-2.38,2.56-4.44,2.56-2.71,0-4.83-2.2-4.83-5.07ZM162.21,34.42c0,.41.42.86,1.01.86s1.01-.45,1.01-1.01v-9.29c0-2,1.61-3.61,3.6-3.61s3.61,1.61,3.61,3.61v9.29c0,.57.42,1.01,1.01,1.01s1.01-.45,1.01-1.01v-9.29c0-3.01-2.38-5.48-5.36-5.48-1.52,0-2.89.66-3.87,1.7v-5.46c0-.57-.42-1.01-1.01-1.01s-1.01.45-1.01,1.17v18.53h0ZM155.6,19.64v-3.9c0-.57-.42-1.01-1.01-1.01s-1.01.45-1.01,1.01v3.9h-2.47c-.54,0-.92.39-.92.95,0,.54.39.92.92.92h2.47v8.31c0,1.52.51,2.92,1.43,3.93,1.01,1.1,2.3,1.52,3.87,1.52.66,0,1.07-.51,1.04-1.04-.03-.54-.48-.89-1.01-.89-2.23,0-3.31-1.49-3.31-3.52v-8.31h3.4c.54,0,.92-.39.92-.95,0-.54-.39-.92-.92-.92h-3.4ZM150.83,34.51c.03-.54-.39-.95-.92-1.01-1.22-.12-1.91-.86-1.91-2.26v-15.49c0-.57-.42-1.01-1.01-1.01s-1.01.45-1.01,1.01v15.49c0,1.13.33,2.11.92,2.83.68.86,1.67,1.37,2.89,1.37.6,0,1.01-.42,1.04-.92h0ZM133.79,31.11c0-1.4,1.19-2.18,3.04-2.98l3.64-1.55v3.87c0,1.82-1.52,3.1-3.64,3.1-1.94,0-3.04-.89-3.04-2.44ZM137.19,19.34c-2.09,0-3.9.8-4.83,2.44-.3.51-.24,1.1.21,1.4.45.3,1.04.21,1.34-.24.8-1.16,1.82-1.73,3.28-1.73,2.15,0,3.28,1.1,3.28,3.1v.27l-4.26,1.82c-3.28,1.4-4.5,2.32-4.5,4.89s2,4.14,5.15,4.14,5.63-2.09,5.63-4.97v-6.14c0-3.01-2.06-4.97-5.3-4.97h0ZM120.86,24.32c0-1.82,1.52-3.1,3.64-3.1,1.94,0,3.04.89,3.04,2.44,0,1.4-1.19,2.18-3.04,2.98l-3.64,1.55v-3.87ZM124.14,35.43c2.09,0,3.9-.8,4.83-2.44.3-.51.24-1.1-.21-1.4-.45-.3-1.04-.21-1.34.24-.8,1.16-1.82,1.73-3.28,1.73-2.15,0-3.28-1.1-3.28-3.1v-.27l4.26-1.82c3.28-1.4,4.5-2.32,4.5-4.89s-2-4.14-5.15-4.14-5.63,2.09-5.63,4.97v6.14c0,3.01,2.06,4.97,5.3,4.97h0ZM115.26,34.21V15.8c0-.63-.42-1.07-1.07-1.07s-1.07.45-1.07,1.07v7.95h-9.4v-7.95c0-.63-.42-1.07-1.07-1.07s-1.07.45-1.07,1.07v18.41c0,.6.45,1.07,1.07,1.07s1.07-.45,1.07-1.07v-8.58h9.4v8.58c0,.63.42,1.07,1.07,1.07s1.07-.45,1.07-1.07ZM92.62,35.13c.54,0,.92-.39.92-.92,0-.57-.39-.95-.92-.95h-8.74v-7.63h8.03c.54,0,.92-.39.92-.92,0-.57-.39-.95-.92-.95h-8.03v-7h8.74c.54,0,.92-.39.92-.95,0-.54-.39-.92-.92-.92h-9.79c-.63,0-1.04.45-1.04,1.04v18.17c0,.6.42,1.04,1.04,1.04h9.79ZM78.06,28.43v-3.22c0-.6-.42-1.04-1.04-1.04h-5.63c-.54,0-.92.39-.92.92,0,.57.39.95.92.95h4.59v2.38c0,2.8-2.14,5.07-4.74,5.07s-4.71-2.23-4.71-5.07v-6.85c0-2.86,2.03-5.07,4.65-5.07,2,0,3.43.89,4.29,2.56.24.48.8.68,1.31.45.48-.24.66-.8.42-1.28-1.13-2.35-3.25-3.66-6.02-3.66-3.81,0-6.76,3.04-6.76,7v6.85c0,3.93,2.98,7,6.82,7s6.82-3.19,6.82-7h0ZM30.61,18.49c0-2.84,1.92-5.6,2.97-5.08,1.19.6-.89,3.28-2.97,5.08ZM17.52,19.53c0-2.28,2.26-6.63,3.64-6.17,1.63.54-1.35,4.92-3.64,6.17ZM15.24,35.87c-1.04.05-1.73-.62-1.73-1.72,0-2.98,4.13-5.82,7.24-7.35-.55,4.16-1.96,8.91-5.51,9.07ZM34.28,26.18c-2.35,0-4.16,1.73-4.16,3.81,0,1.73,1.04,3.12,2.42,3.12.49,0,.97-.28.97-.9,0-.9-1.19-1.12-1.1-2.47.06-.89.89-1.48,1.72-1.48,1.66,0,2.44,1.61,2.44,3.27-.07,2.56-1.95,4.35-4.17,4.35-2.91,0-4.78-2.77-4.78-5.75,0-4.43,2.91-6.16,4.43-6.58.01,0,3.98.71,3.86-1.04-.05-.77-1.2-1.06-2.03-1.1-.92-.04-1.84.29-1.84.29-.48-.24-.82-.72-1.02-1.27,2.84-2.15,4.85-4.22,4.85-6.58,0-1.25-.83-2.36-2.42-2.36-2.84,0-4.99,3.6-4.99,6.86,0,.55,0,1.11.14,1.59-1.8,1.32-3.14,2.13-5.56,3.59,0-.3.06-1.08.27-2.1.83-.9,1.97-2.25,1.97-3.29,0-.48-.28-.9-.83-.9-1.38,0-2.42,2.08-2.7,3.53-.62.76-1.87,1.73-2.91,1.73-.83,0-1.11-.76-1.18-1.04,2.63-.9,5.89-4.5,5.89-7.76,0-.69-.28-2.22-2.35-2.22-3.12,0-5.75,4.64-5.75,8.24-1.11,0-1.52-1.18-1.52-2.08s.35-1.8.35-2.08-.14-.62-.56-.62c-1.04,0-1.66,1.38-1.66,2.98.07,2.22,1.52,3.6,3.46,3.74.28,1.32,1.46,2.56,2.91,2.56.9,0,2.01-.28,2.77-.97-.07.49-.14.9-.21,1.32-3.05,1.59-5.26,2.7-7.27,4.5-1.59,1.46-2.49,3.39-2.49,4.92,0,2.08,1.32,4.01,4.02,4.01,3.19,0,5.61-2.56,6.79-6.09.56-1.66.78-4.08.92-6.3,3.19-1.8,4.7-2.84,6.36-4.02.21.35.42.62.69.83-1.45.76-4.92,2.91-4.92,7.96,0,3.6,2.42,7.62,7.2,7.62,3.95,0,6.65-3.25,6.65-6.37,0-2.84-1.59-5.47-4.64-5.47h0ZM46.19,32.12s-.05.05-.13.03c-.06-.02-.08-.05-.08-.09,0-.04.84-2.5.83-5.33-.01-3.05-1.25-4.92-2.84-4.92-.97,0-1.66.69-1.66,1.73,0,1.87,2.28,2.01,2.28,6.1,0,1.66-.35,3.25-.9,4.99-2.56,8.66-10.74,12.67-18.7,12.67-3.67,0-6.28-.75-7.06-1.1-.03-.01-.06-.08-.03-.14.02-.05.07-.08.1-.07.32.12,2.56.83,5.32.83,3.05,0,4.85-1.24,4.85-2.77,0-.97-.76-1.73-1.73-1.73-1.87,0-2.01,2.35-6.02,2.35-1.73,0-3.25-.34-5.06-.9-8.59-2.63-12.68-10.74-12.67-18.77,0-3.91,1.1-7.03,1.12-7.06.01-.02.06-.04.12-.02.06.02.08.07.07.09-.1.32-.83,2.56-.83,5.33,0,3.05,1.25,4.85,2.84,4.85.9,0,1.66-.69,1.66-1.66,0-1.87-2.28-2.08-2.28-6.1,0-1.73.35-3.26.9-5.06C8.93,6.79,17.03,2.76,25,2.7c3.7-.03,6.94,1.08,7.06,1.18.02.02.05.07.02.12-.03.06-.07.07-.09.07-.04,0-2.15-.88-5.33-.88-2.98,0-4.85,1.24-4.85,2.84,0,.9.69,1.66,1.73,1.66,1.87,0,2.01-2.28,6.02-2.28,1.73,0,3.25.35,5.06.9,8.66,2.63,12.6,10.8,12.67,18.7.04,4.04-1.1,7.11-1.11,7.13h0ZM25,1.17C11.84,1.17,1.18,11.84,1.18,25s10.67,23.82,23.83,23.82,23.82-10.66,23.82-23.82S38.16,1.17,25,1.17ZM25,50C11.22,50,0,38.85,0,25S11.22,0,25,0s25,11.22,25,25-11.22,25-25,25h0Z"/>
</svg>